<?xml version="1.0" standalone="no"?>
<!DOCTYPE svg PUBLIC "-//W3C//DTD SVG 20010904//EN"
 "http://www.w3.org/TR/2001/REC-SVG-20010904/DTD/svg10.dtd">
<svg version="1.0" xmlns="http://www.w3.org/2000/svg"
 width="936.000000pt" height="204.000000pt" viewBox="0 0 936.000000 204.000000"
 preserveAspectRatio="xMidYMid meet">
<metadata>
Created by potrace 1.14, written by Peter Selinger 2001-2017
</metadata>
<g transform="translate(0.000000,204.000000) scale(0.100000,-0.100000)"
fill="#000000" stroke="none">
<path d="M9195 1974 c-215 -74 -624 -201 -900 -280 -1768 -508 -3160 -637
-4160 -388 -230 58 -421 127 -705 257 -91 41 -187 82 -213 91 -100 34 -187 12
-245 -61 -37 -48 -66 -105 -148 -296 -230 -532 -473 -904 -703 -1077 -343
-258 -675 -203 -1072 178 -132 126 -216 221 -449 507 -189 231 -297 342 -370
378 -66 33 -87 34 -131 4 -33 -22 -89 -116 -88 -147 0 -8 9 7 20 34 58 143
127 159 257 61 63 -48 151 -145 347 -385 189 -231 278 -332 410 -458 295 -284
549 -386 799 -322 348 89 671 489 990 1227 78 182 110 247 144 291 52 68 141
89 239 56 26 -9 122 -50 213 -91 284 -130 475 -199 705 -257 1049 -262 2527
-106 4420 464 293 89 785 248 785 255 0 8 -10 5 -145 -41z"/>
</g>
</svg>
